<svg xmlns="http://www.w3.org/2000/svg" xmlns:xlink="http://www.w3.org/1999/xlink" style="enable-background:new 0 0 229 236.2" id="Layer_1" x="0" y="0" version="1.1" viewBox="0 0 229 236.2" xml:space="preserve"><style type="text/css">.st0{fill:none;stroke:url(#SVGID_1_);stroke-width:12;stroke-linecap:round;stroke-miterlimit:10}.st1{stroke:url(#SVGID_2_)}.st1,.st10,.st11,.st12,.st13,.st14{fill:none;stroke-width:12;stroke-linecap:round;stroke-miterlimit:10}.st2{stroke:url(#SVGID_3_)}.st2,.st3,.st4,.st5,.st6,.st7,.st8,.st9{fill:none;stroke-width:12;stroke-linecap:round;stroke-miterlimit:10}.st3{stroke:url(#SVGID_4_)}.st4{stroke:url(#SVGID_5_)}.st5{stroke:url(#SVGID_6_)}.st6{stroke:url(#SVGID_7_)}.st7{stroke:url(#SVGID_8_)}.st8{stroke:url(#SVGID_9_)}.st9{stroke:url(#SVGID_10_)}.st10{stroke:url(#SVGID_11_)}.st11{stroke:url(#SVGID_12_)}.st12{stroke:url(#SVGID_13_)}.st13{stroke:url(#SVGID_14_)}.st14{stroke:url(#SVGID_15_)}</style><g id="Capa_2"><g id="Capa_1-2"><radialGradient id="SVGID_1_" cx="145.5" cy="305.257" r="47.261" gradientTransform="matrix(1 0 0 -1 0 412.88)" gradientUnits="userSpaceOnUse"><stop style="stop-color:#1e8bb0" offset="0"/><stop style="stop-color:#00a7ba" offset=".2"/><stop style="stop-color:#00c2b3" offset=".4"/><stop style="stop-color:#5bd99e" offset=".6"/><stop style="stop-color:#a9ec83" offset=".8"/><stop style="stop-color:#f1e833" offset="1"/></radialGradient><path d="M113.9,120.7c0,0,12.3-23.5,19-25.2s12.9-15.7,7.3-15.7s15.7-31.4,21.8-34.2s15.1-20.2,15.1-20.2" class="st0"/><radialGradient id="SVGID_2_" cx="121.635" cy="317.353" r="46.959" gradientTransform="matrix(1 0 0 -1 0 418.93)" gradientUnits="userSpaceOnUse"><stop style="stop-color:#1e8bb0" offset="0"/><stop style="stop-color:#00a7ba" offset=".2"/><stop style="stop-color:#00c2b3" offset=".4"/><stop style="stop-color:#5bd99e" offset=".6"/><stop style="stop-color:#a9ec83" offset=".8"/><stop style="stop-color:#f1e833" offset="1"/></radialGradient><path d="M114,117.8c1.5-6.6-0.5-12.6,1.5-19.6c2-5,6-10,6-15c0-27,2-53,7.7-79" class="st1"/><radialGradient id="SVGID_3_" cx="114.04" cy="259.112" r="6.009" gradientTransform="matrix(1 0 0 -1 0 389.72)" gradientUnits="userSpaceOnUse"><stop style="stop-color:#1e8bb0" offset="0"/><stop style="stop-color:#00a7ba" offset=".2"/><stop style="stop-color:#00c2b3" offset=".4"/><stop style="stop-color:#5bd99e" offset=".6"/><stop style="stop-color:#a9ec83" offset=".8"/><stop style="stop-color:#f1e833" offset="1"/></radialGradient><path d="M114.2,119.4c-0.1,0.5-0.2,1.1-0.3,1.6c0-0.5,0-1.1,0-1.6" class="st2"/><radialGradient id="SVGID_4_" cx="162.99" cy="277.157" r="43.038" gradientTransform="matrix(1 0 0 -1 0 398.83)" gradientUnits="userSpaceOnUse"><stop style="stop-color:#1e8bb0" offset="0"/><stop style="stop-color:#00a7ba" offset=".2"/><stop style="stop-color:#00c2b3" offset=".4"/><stop style="stop-color:#5bd99e" offset=".6"/><stop style="stop-color:#a9ec83" offset=".8"/><stop style="stop-color:#f1e833" offset="1"/></radialGradient><path d="M212.2,81.5c0,0-22.8,18.8-48.2,28.1s-16.9-3-23.1,3.6s-27.1,7.6-27.1,7.6" class="st3"/><radialGradient id="SVGID_5_" cx="162.505" cy="288.189" r="46.22" gradientTransform="matrix(1 0 0 -1 0 404.35)" gradientUnits="userSpaceOnUse"><stop style="stop-color:#1e8bb0" offset="0"/><stop style="stop-color:#00a7ba" offset=".2"/><stop style="stop-color:#00c2b3" offset=".4"/><stop style="stop-color:#5bd99e" offset=".6"/><stop style="stop-color:#a9ec83" offset=".8"/><stop style="stop-color:#f1e833" offset="1"/></radialGradient><path d="M113.9,119.7c0,0,4.4,0.4,19.6-11.1s23.8-12.9,29.4-18.5s24.1-15.9,30.4-16.9s17.7-12.7,17.7-12.7" class="st4"/><radialGradient id="SVGID_6_" cx="89.27" cy="309.793" r="47.124" gradientTransform="matrix(1 0 0 -1 0 415.15)" gradientUnits="userSpaceOnUse"><stop style="stop-color:#1e8bb0" offset="0"/><stop style="stop-color:#00a7ba" offset=".2"/><stop style="stop-color:#00c2b3" offset=".4"/><stop style="stop-color:#5bd99e" offset=".6"/><stop style="stop-color:#a9ec83" offset=".8"/><stop style="stop-color:#f1e833" offset="1"/></radialGradient><path d="M113.9,119.7c0,0-22-35.6-19.7-39.6s-11.9-1.3-10.6-17.5S65.5,49.8,70.8,33.2s-2.7-7.7-6.1-15.9" class="st5"/><radialGradient id="SVGID_7_" cx="127.695" cy="201.95" r="47.258" gradientTransform="matrix(1 0 0 -1 0 361.23)" gradientUnits="userSpaceOnUse"><stop style="stop-color:#1e8bb0" offset="0"/><stop style="stop-color:#00a7ba" offset=".2"/><stop style="stop-color:#00c2b3" offset=".4"/><stop style="stop-color:#5bd99e" offset=".6"/><stop style="stop-color:#a9ec83" offset=".8"/><stop style="stop-color:#f1e833" offset="1"/></radialGradient><path d="M113.7,120.8c0,0,13.2,37,11.2,40s11,70.5,16.7,71.1" class="st6"/><radialGradient id="SVGID_8_" cx="78.015" cy="212.877" r="47.287" gradientTransform="matrix(1 0 0 -1 0 366.69)" gradientUnits="userSpaceOnUse"><stop style="stop-color:#1e8bb0" offset="0"/><stop style="stop-color:#00a7ba" offset=".2"/><stop style="stop-color:#00c2b3" offset=".4"/><stop style="stop-color:#5bd99e" offset=".6"/><stop style="stop-color:#a9ec83" offset=".8"/><stop style="stop-color:#f1e833" offset="1"/></radialGradient><path d="M113.9,120.7c0,0-7.8,24-22.3,25.6s-17.8,19.5-12.9,18.8s-30.8,31.7-36.5,45.1" class="st7"/><radialGradient id="SVGID_9_" cx="62.26" cy="239.715" r="44.744" gradientTransform="matrix(1 0 0 -1 0 380.11)" gradientUnits="userSpaceOnUse"><stop style="stop-color:#1e8bb0" offset="0"/><stop style="stop-color:#00a7ba" offset=".2"/><stop style="stop-color:#00c2b3" offset=".4"/><stop style="stop-color:#5bd99e" offset=".6"/><stop style="stop-color:#a9ec83" offset=".8"/><stop style="stop-color:#f1e833" offset="1"/></radialGradient><path d="M114.9,120.7c0,0-60.7,22.3-58.7,27.6s-41.7,11.9-46.6,5.9" class="st8"/><radialGradient id="SVGID_10_" cx="65.88" cy="291.953" r="47.145" gradientTransform="matrix(1 0 0 -1 0 406.23)" gradientUnits="userSpaceOnUse"><stop style="stop-color:#1e8bb0" offset="0"/><stop style="stop-color:#00a7ba" offset=".2"/><stop style="stop-color:#00c2b3" offset=".4"/><stop style="stop-color:#5bd99e" offset=".6"/><stop style="stop-color:#a9ec83" offset=".8"/><stop style="stop-color:#f1e833" offset="1"/></radialGradient><path d="M112.6,120.7c0,0-90.4-62.7-93.4-68.6" class="st9"/><radialGradient id="SVGID_11_" cx="104.46" cy="200.39" r="47.523" gradientTransform="matrix(1 0 0 -1 0 360.45)" gradientUnits="userSpaceOnUse"><stop style="stop-color:#1e8bb0" offset="0"/><stop style="stop-color:#00a7ba" offset=".2"/><stop style="stop-color:#00c2b3" offset=".4"/><stop style="stop-color:#5bd99e" offset=".6"/><stop style="stop-color:#a9ec83" offset=".8"/><stop style="stop-color:#f1e833" offset="1"/></radialGradient><path d="M114.2,122.2c0,0,0.5,28.3,4.1,30.3s-6.6,13.9-6.6,18.2s-14.9,12.6-15.5,16.2s-0.7,19.8-5,21.5 s2.8,25.2,2.8,25.2" class="st10"/><radialGradient id="SVGID_12_" cx="143.995" cy="207.41" r="46.57" gradientTransform="matrix(1 0 0 -1 0 363.96)" gradientUnits="userSpaceOnUse"><stop style="stop-color:#1e8bb0" offset="0"/><stop style="stop-color:#00a7ba" offset=".2"/><stop style="stop-color:#00c2b3" offset=".4"/><stop style="stop-color:#5bd99e" offset=".6"/><stop style="stop-color:#a9ec83" offset=".8"/><stop style="stop-color:#f1e833" offset="1"/></radialGradient><path d="M116.1,122.2c0,0,5.5,7.9,5.5,10.2s11.2,4.3,10.6,11.2s3,17.2,6.6,15.9s7.3,3.6,7.3,8.3s2,17.9,8.6,17.9 s14.9-2,15.9,5.3s1.6,25,1.1,28.7" class="st11"/><radialGradient id="SVGID_13_" cx="166.74" cy="255.87" r="41.848" gradientTransform="matrix(1 0 0 -1 0 388.19)" gradientUnits="userSpaceOnUse"><stop style="stop-color:#1e8bb0" offset="0"/><stop style="stop-color:#00a7ba" offset=".2"/><stop style="stop-color:#00c2b3" offset=".4"/><stop style="stop-color:#5bd99e" offset=".6"/><stop style="stop-color:#a9ec83" offset=".8"/><stop style="stop-color:#f1e833" offset="1"/></radialGradient><path d="M114,120.7c0,0,27.5-0.5,43.3,2.8s0.3-5,62.1,0.7" class="st12"/><radialGradient id="SVGID_14_" cx="58.82" cy="271.05" r="46.177" gradientTransform="matrix(1 0 0 -1 0 395.78)" gradientUnits="userSpaceOnUse"><stop style="stop-color:#1e8bb0" offset="0"/><stop style="stop-color:#00a7ba" offset=".2"/><stop style="stop-color:#00c2b3" offset=".4"/><stop style="stop-color:#5bd99e" offset=".6"/><stop style="stop-color:#a9ec83" offset=".8"/><stop style="stop-color:#f1e833" offset="1"/></radialGradient><path d="M2.5,93.4c12-0.2,23,3.8,34,6.8c2.8,1.7,5.8,3.1,9,4c13,5,26,6,40,10c1,0,1-1,2-1c1.5,0.2,2.9,0.9,4,2 c2,1,6,0,8,1c4,3,9,4,14,5c1,0,1-1,1.6-1.5" class="st13"/><radialGradient id="SVGID_15_" cx="165.815" cy="231.47" r="45.647" gradientTransform="matrix(1 0 0 -1 0 375.99)" gradientUnits="userSpaceOnUse"><stop style="stop-color:#1e8bb0" offset="0"/><stop style="stop-color:#00a7ba" offset=".2"/><stop style="stop-color:#00c2b3" offset=".4"/><stop style="stop-color:#5bd99e" offset=".6"/><stop style="stop-color:#a9ec83" offset=".8"/><stop style="stop-color:#f1e833" offset="1"/></radialGradient><path d="M116,120.7c0,0,23.5,16.4,29.1,15.7s15.5,13.2,28.4,14.5s41.6,18.2,42.1,22.1" class="st14"/></g></g></svg>