<svg xmlns="http://www.w3.org/2000/svg" display="none"><symbol xmlns="http://www.w3.org/2000/svg" id=".743" viewBox="0 0 670 670"><g data-name="Capa 2"><circle cx="335" cy="335" r="275" fill="#fff" class="acls-3" data-name="Capa 1"/><path d="M351.15,456.06a22.63,22.63,0,0,1-16.47,6.75A22.1,22.1,0,0,1,318.32,456a22.63,22.63,0,0,1-6.75-16.47,23,23,0,0,1,23.11-23.11A22.82,22.82,0,0,1,351.15,423,22,22,0,0,1,358,439.49,22.38,22.38,0,0,1,351.15,456.06Z" class="cls-4"/><path d="M351.15,351.34a22.63,22.63,0,0,1-16.47,6.75,22.1,22.1,0,0,1-16.36-6.85,22.63,22.63,0,0,1-6.75-16.47,23,23,0,0,1,23.11-23.11,22.82,22.82,0,0,1,16.47,6.65A22,22,0,0,1,358,334.77,22.38,22.38,0,0,1,351.15,351.34Z" class="cls-4"/><path d="M351.15,246.61a22.63,22.63,0,0,1-16.47,6.75,22.1,22.1,0,0,1-16.36-6.85,22.6,22.6,0,0,1-6.75-16.46,23,23,0,0,1,23.11-23.12,22.82,22.82,0,0,1,16.47,6.65A22,22,0,0,1,358,230.05,22.37,22.37,0,0,1,351.15,246.61Z" class="cls-4"/><path d="M399.74,182.2a1.5,1.5,0,0,0,0-3,1.5,1.5,0,0,0,0,3Z" class="cls-4"/></g></symbol></svg>