<svg xmlns="http://www.w3.org/2000/svg" xmlns:xlink="http://www.w3.org/1999/xlink" id="Layer_1" x="0" y="0" version="1.1" viewBox="0 0 309.3 309.3" xml:space="preserve" style="enable-background:new 0 0 309.3 309.3"><style type="text/css">.st0{fill:#fff}</style><g><g><g><polygon points="67.7 125.7 241.6 125.7 280.3 164.4 309.3 164.4 251.3 106.4 58 106.4 0 164.4 29 164.4" class="st0"/></g></g><path d="M212.6,164.4v19.3c0,10.7-8.7,19.3-19.3,19.3H116c-10.7,0-19.3-8.7-19.3-19.3v-19.3H0v116 c0,10.7,8.7,19.3,19.3,19.3h270.6c10.7,0,19.3-8.7,19.3-19.3v-116C309.3,164.4,212.6,164.4,212.6,164.4z" class="st0"/><path d="M220,71.4L164.2,16c-5.2-8.5-13.8-8.5-19.1,0L89.2,71.4c-5.2,8.6-1,15.5,9.5,15.5h26.9V145 c0,5.4,4.3,9.7,9.7,9.7H174c5.3,0,9.7-4.3,9.7-9.7V86.9h26.9C221,86.9,225.3,79.9,220,71.4z" class="st0"/></g></svg>